<mxfile host="app.diagrams.net" modified="2023-12-29T03:33:22.472Z" agent="Mozilla/5.0 (Windows NT 10.0; Win64; x64) AppleWebKit/537.36 (KHTML, like Gecko) Chrome/120.0.0.0 Safari/537.36" etag="pO1aJAMfD0ExjcSF1rMm" version="22.1.15" type="device">
  <diagram name="Trang-1" id="r7_ZuiL5UtpyIp4B5I-h">
    <mxGraphModel dx="819" dy="426" grid="1" gridSize="10" guides="1" tooltips="1" connect="1" arrows="1" fold="1" page="1" pageScale="1" pageWidth="850" pageHeight="1100" math="0" shadow="0">
      <root>
        <mxCell id="0" />
        <mxCell id="1" parent="0" />
        <mxCell id="Gp0Pyt1-zadGcuxU4WOu-41" style="edgeStyle=orthogonalEdgeStyle;rounded=0;orthogonalLoop=1;jettySize=auto;html=1;strokeColor=#000000;shadow=0;targetPerimeterSpacing=0;" edge="1" parent="1" source="Gp0Pyt1-zadGcuxU4WOu-1">
          <mxGeometry relative="1" as="geometry">
            <mxPoint x="430" y="90" as="targetPoint" />
          </mxGeometry>
        </mxCell>
        <mxCell id="Gp0Pyt1-zadGcuxU4WOu-1" value="Subjiect" style="swimlane;fontStyle=1;align=center;verticalAlign=top;childLayout=stackLayout;horizontal=1;startSize=26;horizontalStack=0;resizeParent=1;resizeParentMax=0;resizeLast=0;collapsible=1;marginBottom=0;whiteSpace=wrap;html=1;" vertex="1" parent="1">
          <mxGeometry x="50" y="18" width="240" height="150" as="geometry" />
        </mxCell>
        <mxCell id="Gp0Pyt1-zadGcuxU4WOu-2" value="&amp;nbsp;+ observers: list&amp;lt;Observer&amp;gt;" style="text;strokeColor=none;fillColor=none;align=left;verticalAlign=top;spacingLeft=4;spacingRight=4;overflow=hidden;rotatable=0;points=[[0,0.5],[1,0.5]];portConstraint=eastwest;whiteSpace=wrap;html=1;" vertex="1" parent="Gp0Pyt1-zadGcuxU4WOu-1">
          <mxGeometry y="26" width="240" height="26" as="geometry" />
        </mxCell>
        <mxCell id="Gp0Pyt1-zadGcuxU4WOu-3" value="" style="line;strokeWidth=1;fillColor=none;align=left;verticalAlign=middle;spacingTop=-1;spacingLeft=3;spacingRight=3;rotatable=0;labelPosition=right;points=[];portConstraint=eastwest;strokeColor=inherit;" vertex="1" parent="Gp0Pyt1-zadGcuxU4WOu-1">
          <mxGeometry y="52" width="240" height="8" as="geometry" />
        </mxCell>
        <mxCell id="Gp0Pyt1-zadGcuxU4WOu-19" value=" + AddObserver() &#xa;&#xa; + DeleteObserver()  &#xa;&#xa; + NotifyObservers() " style="text;whiteSpace=wrap;" vertex="1" parent="Gp0Pyt1-zadGcuxU4WOu-1">
          <mxGeometry y="60" width="240" height="90" as="geometry" />
        </mxCell>
        <mxCell id="Gp0Pyt1-zadGcuxU4WOu-5" value="Obsever" style="swimlane;fontStyle=1;align=center;verticalAlign=top;childLayout=stackLayout;horizontal=1;startSize=26;horizontalStack=0;resizeParent=1;resizeParentMax=0;resizeLast=0;collapsible=1;marginBottom=0;whiteSpace=wrap;html=1;" vertex="1" parent="1">
          <mxGeometry x="440" y="60" width="290" height="66" as="geometry" />
        </mxCell>
        <mxCell id="Gp0Pyt1-zadGcuxU4WOu-28" value="&lt;span style=&quot;color: rgb(0, 0, 0); font-family: Helvetica; font-size: 12px; font-style: normal; font-variant-ligatures: normal; font-variant-caps: normal; font-weight: 400; letter-spacing: normal; orphans: 2; text-align: left; text-indent: 0px; text-transform: none; widows: 2; word-spacing: 0px; -webkit-text-stroke-width: 0px; background-color: rgb(251, 251, 251); text-decoration-thickness: initial; text-decoration-style: initial; text-decoration-color: initial; float: none; display: inline !important;&quot;&gt;+ Update()&lt;/span&gt;" style="text;whiteSpace=wrap;html=1;" vertex="1" parent="Gp0Pyt1-zadGcuxU4WOu-5">
          <mxGeometry y="26" width="290" height="40" as="geometry" />
        </mxCell>
        <mxCell id="Gp0Pyt1-zadGcuxU4WOu-9" value="DepartmentOfficeNotifier" style="swimlane;fontStyle=1;align=center;verticalAlign=top;childLayout=stackLayout;horizontal=1;startSize=26;horizontalStack=0;resizeParent=1;resizeParentMax=0;resizeLast=0;collapsible=1;marginBottom=0;whiteSpace=wrap;html=1;" vertex="1" parent="1">
          <mxGeometry x="450" y="298" width="280" height="98" as="geometry" />
        </mxCell>
        <mxCell id="Gp0Pyt1-zadGcuxU4WOu-24" value="+ Update()" style="text;whiteSpace=wrap;" vertex="1" parent="Gp0Pyt1-zadGcuxU4WOu-9">
          <mxGeometry y="26" width="280" height="34" as="geometry" />
        </mxCell>
        <mxCell id="Gp0Pyt1-zadGcuxU4WOu-11" value="" style="line;strokeWidth=1;fillColor=none;align=left;verticalAlign=middle;spacingTop=-1;spacingLeft=3;spacingRight=3;rotatable=0;labelPosition=right;points=[];portConstraint=eastwest;strokeColor=inherit;" vertex="1" parent="Gp0Pyt1-zadGcuxU4WOu-9">
          <mxGeometry y="60" width="280" height="8" as="geometry" />
        </mxCell>
        <mxCell id="Gp0Pyt1-zadGcuxU4WOu-36" value="&amp;nbsp;+ obseverState" style="text;html=1;align=left;verticalAlign=middle;resizable=0;points=[];autosize=1;strokeColor=none;fillColor=none;" vertex="1" parent="Gp0Pyt1-zadGcuxU4WOu-9">
          <mxGeometry y="68" width="280" height="30" as="geometry" />
        </mxCell>
        <mxCell id="Gp0Pyt1-zadGcuxU4WOu-13" value="Teacher" style="swimlane;fontStyle=1;align=center;verticalAlign=top;childLayout=stackLayout;horizontal=1;startSize=26;horizontalStack=0;resizeParent=1;resizeParentMax=0;resizeLast=0;collapsible=1;marginBottom=0;whiteSpace=wrap;html=1;" vertex="1" parent="1">
          <mxGeometry x="50" y="270" width="230" height="154" as="geometry" />
        </mxCell>
        <mxCell id="Gp0Pyt1-zadGcuxU4WOu-32" value="&amp;nbsp;+ setReport()" style="text;html=1;align=left;verticalAlign=middle;resizable=0;points=[];autosize=1;strokeColor=none;fillColor=none;" vertex="1" parent="Gp0Pyt1-zadGcuxU4WOu-13">
          <mxGeometry y="26" width="230" height="30" as="geometry" />
        </mxCell>
        <mxCell id="Gp0Pyt1-zadGcuxU4WOu-33" value="&amp;nbsp;+ getReportDate()" style="text;html=1;align=left;verticalAlign=middle;resizable=0;points=[];autosize=1;strokeColor=none;fillColor=none;" vertex="1" parent="Gp0Pyt1-zadGcuxU4WOu-13">
          <mxGeometry y="56" width="230" height="30" as="geometry" />
        </mxCell>
        <mxCell id="Gp0Pyt1-zadGcuxU4WOu-31" value="&amp;nbsp;+ getReport()" style="text;html=1;align=left;verticalAlign=middle;resizable=0;points=[];autosize=1;strokeColor=none;fillColor=none;" vertex="1" parent="Gp0Pyt1-zadGcuxU4WOu-13">
          <mxGeometry y="86" width="230" height="30" as="geometry" />
        </mxCell>
        <mxCell id="Gp0Pyt1-zadGcuxU4WOu-15" value="" style="line;strokeWidth=1;fillColor=none;align=left;verticalAlign=middle;spacingTop=-1;spacingLeft=3;spacingRight=3;rotatable=0;labelPosition=right;points=[];portConstraint=eastwest;strokeColor=inherit;" vertex="1" parent="Gp0Pyt1-zadGcuxU4WOu-13">
          <mxGeometry y="116" width="230" height="8" as="geometry" />
        </mxCell>
        <mxCell id="Gp0Pyt1-zadGcuxU4WOu-35" value="&amp;nbsp;+ reportState" style="text;html=1;align=left;verticalAlign=middle;resizable=0;points=[];autosize=1;strokeColor=none;fillColor=none;" vertex="1" parent="Gp0Pyt1-zadGcuxU4WOu-13">
          <mxGeometry y="124" width="230" height="30" as="geometry" />
        </mxCell>
        <mxCell id="Gp0Pyt1-zadGcuxU4WOu-37" value="" style="endArrow=block;endSize=16;endFill=0;html=1;rounded=0;" edge="1" parent="1" source="Gp0Pyt1-zadGcuxU4WOu-13" target="Gp0Pyt1-zadGcuxU4WOu-1">
          <mxGeometry width="160" relative="1" as="geometry">
            <mxPoint x="130" y="510" as="sourcePoint" />
            <mxPoint x="290" y="510" as="targetPoint" />
          </mxGeometry>
        </mxCell>
        <mxCell id="Gp0Pyt1-zadGcuxU4WOu-39" value="" style="endArrow=block;endSize=16;endFill=0;html=1;rounded=0;" edge="1" parent="1" source="Gp0Pyt1-zadGcuxU4WOu-9" target="Gp0Pyt1-zadGcuxU4WOu-5">
          <mxGeometry width="160" relative="1" as="geometry">
            <mxPoint x="210" y="530" as="sourcePoint" />
            <mxPoint x="370" y="530" as="targetPoint" />
          </mxGeometry>
        </mxCell>
        <mxCell id="Gp0Pyt1-zadGcuxU4WOu-40" value="" style="endArrow=open;endFill=1;endSize=12;html=1;rounded=0;" edge="1" parent="1" source="Gp0Pyt1-zadGcuxU4WOu-9" target="Gp0Pyt1-zadGcuxU4WOu-13">
          <mxGeometry width="160" relative="1" as="geometry">
            <mxPoint x="340" y="450" as="sourcePoint" />
            <mxPoint x="500" y="450" as="targetPoint" />
          </mxGeometry>
        </mxCell>
        <mxCell id="Gp0Pyt1-zadGcuxU4WOu-44" value="" style="html=1;verticalAlign=bottom;startArrow=circle;startFill=1;endArrow=open;startSize=6;endSize=0;curved=0;rounded=0;strokeWidth=0;" edge="1" parent="1">
          <mxGeometry width="80" relative="1" as="geometry">
            <mxPoint x="440" y="91.5" as="sourcePoint" />
            <mxPoint x="315" y="90" as="targetPoint" />
            <mxPoint as="offset" />
          </mxGeometry>
        </mxCell>
        <mxCell id="Gp0Pyt1-zadGcuxU4WOu-45" value="obsevers" style="text;html=1;align=center;verticalAlign=middle;resizable=0;points=[];autosize=1;strokeColor=none;fillColor=none;" vertex="1" parent="1">
          <mxGeometry x="320" y="60" width="70" height="30" as="geometry" />
        </mxCell>
        <mxCell id="Gp0Pyt1-zadGcuxU4WOu-46" value="subject" style="text;html=1;align=center;verticalAlign=middle;resizable=0;points=[];autosize=1;strokeColor=none;fillColor=none;" vertex="1" parent="1">
          <mxGeometry x="360" y="318" width="60" height="30" as="geometry" />
        </mxCell>
      </root>
    </mxGraphModel>
  </diagram>
</mxfile>
